<svg xmlns="http://www.w3.org/2000/svg" version="1.1" x="0px" y="0px" width="100px" height="72px" viewBox="0 0 100 72" enable-background="new 0 0 100 72" xml:space="preserve"><rect y="67.275" fill="#E5E2D9" width="100" height="4.725"/><path fill="#5396AC" d="M94.356 37.354c-1.706-0.394-3.937-2.101-5.905-2.101s-3.077 0.421-4.462 1.182c-2.795 1.536-7.218 3.149-7.218 3.149s-7.794 1.719-15.092-1.05c-11.418-4.33-16.535-10.892-16.535-10.892s0.104 5.497 2.493 7.151c2.56 1.771 7.48 3.543 10.63 10.695 0.541 1.228 0.466 2.797 1.182 5.25 0.314 1.083 1.096 4.087 5.112 6.03l-1.408 8.412c-0.062-0.008-0.122-0.015-0.174-0.017 -1.023-0.043-2.148 0.81-2.152 1.584l-0.036 0.321c-0.001 0.32 1.592 1.394 2.108 1.676C63.417 69.029 65.971 72 65.971 72l-0.257-2.229L67.269 72l-0.357-2.388L68.582 72c0 0-0.119-2.746-0.836-4.178 -0.512-1.025-2.205-1.919-3.504-2.362l1.379-8.234c1.631 0.624 3.707 1.08 6.349 1.235l-0.896 6.535c-0.079-0.012-0.152-0.02-0.217-0.021 -1.022-0.042-2.185 1.131-2.188 1.906 -0.001 0.32 1.591 1.393 2.108 1.676 0.518 0.282 3.07 3.253 3.07 3.253l-0.257-2.23 1.556 2.23 -0.358-2.388 1.671 2.388c0 0-0.119-2.747-0.835-4.179 -0.507-1.013-2.168-1.898-3.461-2.347l0.931-6.783c4.65 0.032 8.631-1.684 11.552-5.661 1.639-2.231 4.725-7.48 5.905-8.661 1.182-1.181 3.544-3.806 5.381-4.724 1.837-0.92 4.068-2.101 4.068-2.101S96.062 37.748 94.356 37.354zM87.795 39.717c-1.042 0-1.443-3.019 0.656-2.888C89.85 36.917 90.102 39.717 87.795 39.717z"/><polygon fill="#E5E2D9" points="28,36 60,68 28,68 "/></svg>